<svg xmlns="http://www.w3.org/2000/svg" version="1.1" xmlns:xlink="http://www.w3.org/1999/xlink" xmlns:svgjs="http://svgjs.dev/svgjs" width="1500" height="1500" viewBox="0 0 1500 1500"><rect width="1500" height="1500" fill="#89939e"></rect><g transform="matrix(0.6666666666666666,0,0,0.6666666666666666,249.64177757726145,388.2931174089068)"><svg viewBox="0 0 341 247" data-background-color="#89939e" preserveAspectRatio="xMidYMid meet" height="1086" width="1500" xmlns="http://www.w3.org/2000/svg" xmlns:xlink="http://www.w3.org/1999/xlink"><g id="tight-bounds" transform="matrix(1,0,0,1,0.12215384615385005,-0.09999999999999432)"><svg viewBox="0 0 340.7556923076923 247.2" height="247.2" width="340.7556923076923"><g><svg viewBox="0 0 340.7556923076923 247.2" height="247.2" width="340.7556923076923"><g><svg viewBox="0 0 340.7556923076923 247.2" height="247.2" width="340.7556923076923"><g id="textblocktransform"><svg viewBox="0 0 340.7556923076923 247.2" height="247.2" width="340.7556923076923" id="textblock"><g><svg viewBox="0 0 340.7556923076923 247.2" height="247.2" width="340.7556923076923"><g transform="matrix(1,0,0,1,0,0)"><svg width="340.7556923076923" viewBox="4.7 -32.5 44.8 32.5" height="247.2" data-palette-color="#ffffff"><path d="M4.7 0L4.7-32.5 12.5-32.5Q17.5-32.5 20.28-29.9 23.05-27.3 23.05-22.2L23.05-22.2Q23.05-18.4 21.55-15.98 20.05-13.55 17.68-12.48 15.3-11.4 12.6-11.4L12.6-11.4 8.5-11.4 8.5 0 4.7 0ZM8.5-13.5L12.05-13.5Q19.05-13.5 19.05-22.05L19.05-22.05Q19.05-26.25 17.25-28.28 15.45-30.3 12.1-30.3L12.1-30.3 8.5-30.3 8.5-13.5ZM29.5 0L29.5-32.5 37.7-32.5Q42.6-32.5 45.27-30.28 47.95-28.05 47.95-24.4L47.95-24.4Q47.95-21.7 46.6-19.9 45.25-18.1 43.25-17.05L43.25-17.05Q46.15-16.25 47.82-14.25 49.5-12.25 49.5-9.2L49.5-9.2Q49.5-4.8 46.57-2.4 43.65 0 37.75 0L37.75 0 29.5 0ZM33.3-17.8L39.2-17.8Q40.25-17.8 41.42-18.4 42.6-19 43.45-20.43 44.3-21.85 44.3-24.15L44.3-24.15Q44.3-27.2 42.45-28.75 40.6-30.3 37.55-30.3L37.55-30.3 33.3-30.3 33.3-17.8ZM33.3-2.2L37.6-2.2Q45.75-2.2 45.75-9.35L45.75-9.35Q45.75-12.55 44-14.15 42.25-15.75 39.4-15.75L39.4-15.75 33.3-15.75 33.3-2.2Z" opacity="1" transform="matrix(1,0,0,1,0,0)" fill="#ffffff" class="wordmark-text-0" data-fill-palette-color="primary" id="text-0"></path></svg></g></svg></g></svg></g></svg></g><g></g></svg></g><defs></defs></svg><rect width="340.7556923076923" height="247.2" fill="none" stroke="none" visibility="hidden"></rect></g></svg></g></svg>